<svg width="24" height="25" viewBox="0 0 24 25" fill="none" xmlns="http://www.w3.org/2000/svg">
<path d="M18.561 15.6582C17.459 15.6582 16.426 15.1912 15.487 14.4312L15.715 13.3552L15.723 13.3132C15.93 12.1702 16.572 10.2532 18.562 10.2532C20.054 10.2532 21.265 11.4652 21.265 12.9562C21.264 14.4452 20.053 15.6582 18.561 15.6582ZM18.561 7.51819C16.022 7.51819 14.051 9.16719 13.251 11.8842C12.031 10.0502 11.103 7.84819 10.564 5.99219H7.828V13.1042C7.826 14.5102 6.687 15.6502 5.281 15.6522C3.876 15.6502 2.738 14.5092 2.736 13.1042V5.99219H0V13.1042C0 16.0182 2.37 18.4072 5.281 18.4072C8.194 18.4072 10.564 16.0182 10.564 13.1042V11.9142C11.093 13.0212 11.746 14.1432 12.538 15.1352L10.865 23.0082H13.662L14.875 17.2982C15.938 17.9772 17.16 18.4072 18.561 18.4072C21.561 18.4072 24 15.9552 24 12.9572C24 9.95719 21.561 7.51819 18.561 7.51819Z" fill="#0054F1"/>
</svg>
